<?xml version="1.0" encoding="iso-8859-1"?>
<!-- Generator: Adobe Illustrator 19.0.0, SVG Export Plug-In . SVG Version: 6.00 Build 0)  -->
<svg xmlns="http://www.w3.org/2000/svg" xmlns:xlink="http://www.w3.org/1999/xlink" version="1.1" id="Capa_1" x="0px" y="0px" viewBox="0 0 511.999 511.999" style="enable-background:new 0 0 511.999 511.999;" xml:space="preserve">
<g>
	<g>
		<path fill="red"  d="M462.655,71.713l-200-70.573c-4.307-1.52-9.004-1.52-13.311,0l-200,70.573c-7.997,2.822-13.345,10.38-13.345,18.86v99.03    c0,97.285,36.415,182.733,106.192,249.321c52.216,49.829,104.246,70.798,106.435,71.666c2.368,0.939,4.871,1.409,7.373,1.409    c2.503,0,5.005-0.47,7.373-1.41c2.19-0.868,54.219-21.837,106.435-71.666c69.806-66.616,106.192-152.079,106.192-249.321v-99.03    C475.999,82.092,470.652,74.534,462.655,71.713z M435.999,189.603c0,85.904-31.643,160.534-92.731,219.352    c-35.775,34.446-72.089,53.865-87.267,61.124c-15.203-7.27-51.506-26.688-87.271-61.124    c-61.127-58.856-92.731-133.499-92.731-219.352v-84.879l180-63.516l180,63.516V189.603z"/>
	</g>
</g>
<g>
	<g>
		<path fill="red"  d="M362.655,140.514l-100-35.286c-4.307-1.52-9.004-1.52-13.311,0l-100,35.286c-7.997,2.822-13.345,10.38-13.345,18.86    v30.229c0,84.524,37.513,155.718,108.485,205.886c3.46,2.445,7.501,3.668,11.544,3.668c4.052,0,8.105-1.228,11.57-3.685    c70.917-50.285,108.402-121.473,108.402-205.869v-30.229C376.001,150.894,370.652,143.336,362.655,140.514z M335.999,189.603    c0,67.171-26.892,122.469-79.979,164.572c-52.887-41.944-80.021-97.711-80.021-164.573v-16.077l80-28.228l80,28.229V189.603z"/>
	</g>
</g>
<g>
</g>
<g>
</g>
<g>
</g>
<g>
</g>
<g>
</g>
<g>
</g>
<g>
</g>
<g>
</g>
<g>
</g>
<g>
</g>
<g>
</g>
<g>
</g>
<g>
</g>
<g>
</g>
<g>
</g>
</svg>
