<?xml version="1.0" encoding="iso-8859-1"?>
<!-- Generator: Adobe Illustrator 19.0.0, SVG Export Plug-In . SVG Version: 6.00 Build 0)  -->
<svg xmlns="http://www.w3.org/2000/svg" xmlns:xlink="http://www.w3.org/1999/xlink" version="1.1" id="Capa_1" x="0px" y="0px" viewBox="0 0 512 512" style="enable-background:new 0 0 512 512;" xml:space="preserve">
<g>
	<g>
		<path fill="red" d="M256,0C114.497,0,0,114.507,0,256c0,141.503,114.507,256,256,256c141.503,0,256-114.507,256-256    C512,114.497,397.492,0,256,0z M256,472c-119.393,0-216-96.615-216-216c0-119.393,96.615-216,216-216    c119.393,0,216,96.615,216,216C472,375.393,375.384,472,256,472z"/>
	</g>
</g>
<g>
	<g>
		<path fill="red" d="M256,90.555c-11.046,0-20,8.954-20,20v137.161l-55.877,55.877c-7.811,7.81-7.811,20.473,0,28.284    c7.811,7.811,20.474,7.81,28.285,0l61.735-61.735c3.75-3.75,5.857-8.838,5.857-14.142V110.555    C276,99.509,267.046,90.555,256,90.555z"/>
	</g>
</g>
<g>
</g>
<g>
</g>
<g>
</g>
<g>
</g>
<g>
</g>
<g>
</g>
<g>
</g>
<g>
</g>
<g>
</g>
<g>
</g>
<g>
</g>
<g>
</g>
<g>
</g>
<g>
</g>
<g>
</g>
</svg>
